TITLE ""
FILE "Step1_Track19.mp3" MP3
  TRACK 01 AUDIO
    TITLE "Step1_Track19_01"
    INDEX 01 00:00:00
  TRACK 02 AUDIO
    TITLE "Step1_Track19_02"
    INDEX 01 00:00:22
  TRACK 03 AUDIO
    TITLE "Step1_Track19_03"
    INDEX 01 00:01:70
  TRACK 04 AUDIO
    TITLE "Step1_Track19_04"
    INDEX 01 00:02:54
  TRACK 05 AUDIO
    TITLE "Step1_Track19_05"
    INDEX 01 00:03:48
  TRACK 06 AUDIO
    TITLE "Step1_Track19_06"
    INDEX 01 00:03:62
  TRACK 07 AUDIO
    TITLE "Step1_Track19_07"
    INDEX 01 00:05:62
  TRACK 08 AUDIO
    TITLE "Step1_Track19_08"
    INDEX 01 00:06:11
  TRACK 09 AUDIO
    TITLE "Step1_Track19_09"
    INDEX 01 00:07:10
  TRACK 10 AUDIO
    TITLE "Step1_Track19_10"
    INDEX 01 00:07:14
  TRACK 11 AUDIO
    TITLE "Step1_Track19_11"
    INDEX 01 00:10:03
  TRACK 12 AUDIO
    TITLE "Step1_Track19_12"
    INDEX 01 00:10:32
  TRACK 13 AUDIO
    TITLE "Step1_Track19_13"
    INDEX 01 00:11:36
  TRACK 14 AUDIO
    TITLE "Step1_Track19_14"
    INDEX 01 00:11:38
  TRACK 15 AUDIO
    TITLE "Step1_Track19_15"
    INDEX 01 00:14:24
  TRACK 16 AUDIO
    TITLE "Step1_Track19_16"
    INDEX 01 00:14:52
  TRACK 17 AUDIO
    TITLE "Step1_Track19_17"
    INDEX 01 00:15:51
  TRACK 18 AUDIO
    TITLE "Step1_Track19_18"
    INDEX 01 00:15:53
  TRACK 19 AUDIO
    TITLE "Step1_Track19_19"
    INDEX 01 00:17:50
  TRACK 20 AUDIO
    TITLE "Step1_Track19_20"
    INDEX 01 00:18:14
  TRACK 21 AUDIO
    TITLE "Step1_Track19_21"
    INDEX 01 00:19:17
  TRACK 22 AUDIO
    TITLE "Step1_Track19_22"
    INDEX 01 00:19:19
  TRACK 23 AUDIO
    TITLE "Step1_Track19_23"
    INDEX 01 00:21:40
  TRACK 24 AUDIO
    TITLE "Step1_Track19_24"
    INDEX 01 00:21:67
  TRACK 25 AUDIO
    TITLE "Step1_Track19_25"
    INDEX 01 00:22:73
  TRACK 26 AUDIO
    TITLE "Step1_Track19_26"
    INDEX 01 00:23:03
  TRACK 27 AUDIO
    TITLE "Step1_Track19_27"
    INDEX 01 00:24:62
  TRACK 28 AUDIO
    TITLE "Step1_Track19_28"
    INDEX 01 00:25:28
  TRACK 29 AUDIO
    TITLE "Step1_Track19_29"
    INDEX 01 00:26:35
  TRACK 30 AUDIO
    TITLE "Step1_Track19_30"
    INDEX 01 00:26:45
  TRACK 31 AUDIO
    TITLE "Step1_Track19_31"
    INDEX 01 00:29:10
  TRACK 32 AUDIO
    TITLE "Step1_Track19_32"
    INDEX 01 00:29:34
  TRACK 33 AUDIO
    TITLE "Step1_Track19_33"
    INDEX 01 00:30:23
  TRACK 34 AUDIO
    TITLE "Step1_Track19_34"
    INDEX 01 00:30:39
  TRACK 35 AUDIO
    TITLE "Step1_Track19_35"
    INDEX 01 00:32:63
  TRACK 36 AUDIO
    TITLE "Step1_Track19_36"
    INDEX 01 00:32:73
  TRACK 37 AUDIO
    TITLE "Step1_Track19_37"
    INDEX 01 00:34:03
  TRACK 38 AUDIO
    TITLE "Step1_Track19_38"
    INDEX 01 00:34:15
  TRACK 39 AUDIO
    TITLE "Step1_Track19_39"
    INDEX 01 00:36:36
  TRACK 40 AUDIO
    TITLE "Step1_Track19_40"
    INDEX 01 00:36:65
  TRACK 41 AUDIO
    TITLE "Step1_Track19_41"
    INDEX 01 00:37:62
  TRACK 42 AUDIO
    TITLE "Step1_Track19_42"
    INDEX 01 00:37:70
  TRACK 43 AUDIO
    TITLE "Step1_Track19_43"
    INDEX 01 00:40:25
